<?xml version="1.0" encoding="UTF-8" standalone="no"?>
<!DOCTYPE svg PUBLIC "-//W3C//DTD SVG 1.1//EN" "http://www.w3.org/Graphics/SVG/1.1/DTD/svg11.dtd">
<svg version="1.1" xmlns="http://www.w3.org/2000/svg" xmlns:xlink="http://www.w3.org/1999/xlink" preserveAspectRatio="xMidYMid meet" viewBox="0 0 640 640" width="640" height="640"><defs><path d="" id="a1ZF1qFBUb"></path><path d="M92.32 290.41L48.02 339.84L30.02 370.17C8.47 391.72 5.36 408.84 20.69 421.5C36.02 434.17 47.58 441.17 55.36 442.5L107.4 455.17L168.11 462.43L117.47 497.05L75.16 547.69L52.73 624.34L604.05 623.44L557.66 537.45L498.07 477.85L479.05 457.75L524.87 454.45L563.22 451.69L593.19 453.71C600.05 454.74 604.34 455.38 606.06 455.64C610.82 456.36 615.68 455.5 619.9 453.19C620.82 452.69 616.76 454.9 617.6 454.44C621.93 452.08 624.85 447.77 625.44 442.88C625.58 441.67 625.94 438.66 626.52 433.85L619.45 403.88L606.32 376.61L572.97 327.23L538.55 285.94C546.75 246.04 551.87 221.1 553.92 211.13C554.45 208.54 553.76 205.84 552.06 203.83C551.41 203.06 552.37 204.19 551.77 203.49C549.94 201.33 547.1 200.32 544.33 200.84C537.76 202.08 535.18 202.57 531.77 203.21C531.77 203.21 491.98 213.56 491.98 213.56C489.86 214.27 484.54 216.05 476.04 218.9L451.72 158.36L431.18 163.76C423.1 156.95 418.04 152.69 416.02 150.98C407.79 144.04 398.59 138.36 388.7 134.1C384.13 132.14 374.53 128.01 367.26 124.88C366.34 124.48 365.5 123.93 364.77 123.24C358.8 117.53 343.88 103.25 320 80.42C316.55 78.73 314.39 77.68 313.53 77.26C310.63 75.85 307.22 75.97 304.44 77.59C303.9 77.91 308.18 75.42 308 75.52C303.86 77.93 300.16 81.04 297.06 84.7C291.06 91.8 276.07 109.53 252.09 137.91C219.56 168.8 199.22 188.11 191.09 195.84C186.87 199.85 180.77 201.19 175.25 199.32C168.73 197.11 152.41 191.59 126.3 182.75C121.11 181.9 117.86 181.37 116.57 181.15C113.07 180.58 109.72 182.83 108.95 186.29C108.64 187.67 108.97 186.17 108.64 187.68C107.83 191.25 108.18 194.97 109.61 198.33C111.52 202.81 112.31 204.65 113.54 207.53C117.29 216.3 120.09 225.45 121.89 234.82C122.48 237.87 123.95 245.51 126.3 257.73L92.32 290.41Z" id="e1kp5g12De"></path><path d="" id="aVzmEnj6T"></path><path d="" id="e3Utmhrq0F"></path><path d="M351.66 203.19L362.58 259.9L375.08 329.13L375.08 339.8L337.89 385.53L327.98 381.43L315.01 356.52C310.94 354.95 306.92 347.45 302.94 334.02C298.96 320.59 310.61 276.6 337.89 202.06L351.66 203.19Z" id="dhZurgEpc"></path><path d="" id="b24PbBiOx"></path><path d="M261.5 249.83L275.5 248.67C282.3 246.43 286.56 245.04 288.26 244.48C291.59 243.39 294.76 241.85 297.68 239.9C298.9 239.09 300.87 237.78 302.77 236.51C303.27 236.18 303.3 235.46 302.83 235.08C301.24 233.82 297.28 230.67 290.95 225.63C291.82 228.68 292.36 230.58 292.58 231.34C293.4 234.19 292.92 237.26 291.27 239.73C290.62 240.7 291.77 238.98 291.24 239.77C289.24 242.78 285.86 244.58 282.25 244.58C281.13 244.58 281.57 244.58 279.96 244.58C277.87 244.58 275.9 243.65 274.58 242.03C273.43 240.62 273.47 240.68 272.68 239.7C270.39 236.89 270.23 232.91 272.28 229.93C273.16 228.66 275.01 225.99 276.56 223.74C276.6 223.69 276.55 223.62 276.49 223.64C274.83 224.03 272.07 224.7 270.92 224.98C269.12 225.41 267.42 226.14 265.87 227.14C264.24 228.18 263.69 228.53 262.56 229.26C259.45 231.25 257.12 234.25 255.95 237.75C255.34 239.59 253.82 244.17 251.38 251.49L261.5 249.83Z" id="a2uZuJIv6I"></path><path d="M266.39 351.09L297.7 357.65L320 364.22L356.29 365.73L387.1 362.2L440.63 345.3L428.17 372.3L412.35 390.48L387.1 411.19L362.35 420.79L335.08 423.31L309.32 420.79L280.36 411.19L254.27 392.5L231.04 365.73L215.38 332.4L266.39 351.09Z" id="b2mdCoKYu"></path><path d="M358.46 239.24L364.79 271.29C372.33 275.31 377.03 277.83 378.91 278.84C384.43 281.79 390.83 282.64 396.92 281.25C400.4 280.45 396.49 281.35 398.74 280.83C408.73 278.54 417.49 272.56 423.26 264.08C425.04 261.46 421.46 266.72 423.26 264.08C428.79 255.94 429.72 245.52 425.7 236.53C424.2 233.17 426.43 238.16 425 234.95C420.67 225.27 412.39 217.94 402.26 214.82C399.64 214.02 405.45 215.8 402.26 214.82C394.04 212.29 385.1 213.92 378.29 219.18C375.79 221.12 369.54 225.95 359.54 233.69L358.46 239.24Z" id="a24kqATigD"></path><path d="M285.22 355.13L299.41 358.04L315.91 362.66L339.63 364.64L368.71 364.64L386.89 362.66L370.69 385.53L351.88 404.24L331.75 420.41L318.88 408.86L302.38 393.35L291.82 377.86L285.22 355.13Z" id="aeTyNi3f6"></path><path d="M185.05 334.93L208.79 379.88L233.54 410.68L255.26 433.92L275.46 448.06L293.13 455.13L311.82 455.13L324.45 452.1L333.03 455.13L353.74 460.68L376.97 458.16L395.66 448.06L414.03 433.92L432.02 415.23L448.19 390.48L462.33 364.22L472.93 343.51L485.05 326.85L490.61 307.65L482.53 286.44L478.49 261.69L467.38 228.36L457.28 194.52L443.64 176.83L425.96 165.23L404.75 160.18L384.55 158.37L362.83 165.23L342.51 173.82L322.93 162.2L303.14 155.63L280.34 153.11L258.79 158.37L242.63 165.23L230.51 181.39L210.81 213.65L179.5 307.65L185.05 334.93Z" id="a65BmCFbe"></path><path d="M219.81 206.86L223.7 206.86L231.17 201.34L244.48 190.96L253.25 181.22L262.67 168.55L281.5 173.75L292.86 179.92L316.24 198.75L328.57 201.34L339.29 198.75L342.54 194.2L288.96 156.22L254.87 146.8L218.19 204.59L219.81 206.86Z" id="adcnwHW5d"></path><path d="M358.46 203.32L371.89 203.32L387.54 197.26L407.24 191.7L433.5 185.14L440.57 185.14L447.14 198.77L459.77 213.65L473.4 226.05L476.43 218.47L451.18 158.37L433.5 164.43L407.24 173.01L380.47 181.1L351.68 197.26L358.46 203.32Z" id="d9mnUlQMH1"></path><path d="M303.16 359.47L300.75 367.38L296.53 373.72L292.31 377.86L286.5 376.62L283.87 373.72L283.06 365.73L284.57 355.13L303.16 359.47Z" id="cB02bfqjO"></path><path d="M457.7 196.23L476.43 254.57L482.79 285.71L486.98 289.3L490.63 254.57L485.18 228.22L476.43 220.44L452.85 185.71L443.22 175.49L430.79 162.29L414.06 148.98L389.49 133.62L365.6 123.38L355.36 121.33L338.63 124.41L323.28 124.41L303.16 124.41L283.06 133.62L259.12 146.8L242.73 162.29L221.37 181.31L201.59 203.91L189.16 232.72L187.47 272.84" id="b2HRWmYO0u"></path><path d="M382.86 362.66L385.89 364.31L383.69 376.98L379.28 381.39L373.5 381.39L370.46 376.15L366.61 364.31L382.86 362.66Z" id="bOZd9t7D"></path><path d="M387.78 248.51L409.12 265.11L427.08 270.87L434.2 267.82L430.47 248.51L423.69 241.73L415.56 237.56C416.79 240.66 417.56 242.6 417.87 243.37C419 246.19 418.96 249.34 417.77 252.14C417.33 253.17 418.22 251.07 417.87 251.9C416.42 255.31 413.43 257.82 409.83 258.68C408.13 259.09 409.53 258.75 408.02 259.11C403.88 260.1 399.53 258.79 396.61 255.7C395.73 254.75 397.16 256.27 396.12 255.17C393.69 252.59 392.87 248.9 393.97 245.54C394.5 243.94 395.58 240.63 396.43 238.04C396.5 237.83 396.32 237.61 396.09 237.65C394.97 237.86 395.76 237.72 395.56 237.75C392.2 238.37 388.97 239.54 386 241.22C385.56 241.47 384.46 242.09 382.7 243.09L387.78 248.51Z" id="b9CTkSo3Zf"></path></defs><g><g><g><use xlink:href="#a1ZF1qFBUb" opacity="1" fill="#873d24" fill-opacity="1"></use><g><use xlink:href="#a1ZF1qFBUb" opacity="1" fill-opacity="0" stroke="#000000" stroke-width="1" stroke-opacity="1"></use></g></g><g><g><use xlink:href="#e1kp5g12De" opacity="1" fill-opacity="0" stroke="#000000" stroke-width="1" stroke-opacity="1"></use></g></g><g><g><use xlink:href="#aVzmEnj6T" opacity="1" fill-opacity="0" stroke="#000000" stroke-width="1" stroke-opacity="1"></use></g></g><g><g><use xlink:href="#e3Utmhrq0F" opacity="1" fill-opacity="0" stroke="#000000" stroke-width="1" stroke-opacity="1"></use></g></g><g><use xlink:href="#dhZurgEpc" opacity="1" fill="#ffffff" fill-opacity="0"></use><g><use xlink:href="#dhZurgEpc" opacity="1" fill-opacity="0" stroke="#000000" stroke-width="1" stroke-opacity="1"></use></g></g><g><g><use xlink:href="#b24PbBiOx" opacity="1" fill-opacity="0" stroke="#000000" stroke-width="1" stroke-opacity="1"></use></g></g><g><g><use xlink:href="#a2uZuJIv6I" opacity="1" fill-opacity="0" stroke="#000000" stroke-width="1" stroke-opacity="1"></use></g></g><g><g><use xlink:href="#b2mdCoKYu" opacity="1" fill-opacity="0" stroke="#000000" stroke-width="1" stroke-opacity="1"></use></g></g><g><g><use xlink:href="#a24kqATigD" opacity="1" fill-opacity="0" stroke="#000000" stroke-width="1" stroke-opacity="1"></use></g></g><g><use xlink:href="#aeTyNi3f6" opacity="1" fill="#ffffff" fill-opacity="0"></use><g><use xlink:href="#aeTyNi3f6" opacity="1" fill-opacity="0" stroke="#000000" stroke-width="1" stroke-opacity="1"></use></g></g><g><g><use xlink:href="#a65BmCFbe" opacity="1" fill-opacity="0" stroke="#000000" stroke-width="1" stroke-opacity="1"></use></g></g><g><use xlink:href="#adcnwHW5d" opacity="1" fill="#ffffff" fill-opacity="0"></use><g><use xlink:href="#adcnwHW5d" opacity="1" fill-opacity="0" stroke="#000000" stroke-width="1" stroke-opacity="1"></use></g></g><g><use xlink:href="#d9mnUlQMH1" opacity="1" fill="#ffffff" fill-opacity="0"></use><g><use xlink:href="#d9mnUlQMH1" opacity="1" fill-opacity="0" stroke="#000000" stroke-width="1" stroke-opacity="1"></use></g></g><g><use xlink:href="#cB02bfqjO" opacity="1" fill="#ffffff" fill-opacity="0"></use><g><use xlink:href="#cB02bfqjO" opacity="1" fill-opacity="0" stroke="#000000" stroke-width="1" stroke-opacity="1"></use></g></g><g><g><use xlink:href="#b2HRWmYO0u" opacity="1" fill-opacity="0" stroke="#000000" stroke-width="1" stroke-opacity="1"></use></g></g><g><use xlink:href="#bOZd9t7D" opacity="1" fill="#ffffff" fill-opacity="0"></use><g><use xlink:href="#bOZd9t7D" opacity="1" fill-opacity="0" stroke="#000000" stroke-width="1" stroke-opacity="1"></use></g></g><g><use xlink:href="#b9CTkSo3Zf" opacity="1" fill="#ffffff" fill-opacity="0"></use><g><use xlink:href="#b9CTkSo3Zf" opacity="1" fill-opacity="0" stroke="#000000" stroke-width="1" stroke-opacity="1"></use></g></g></g></g></svg>